<svg width="227" height="130" viewBox="0 0 227 130" fill="none" xmlns="http://www.w3.org/2000/svg">
<path d="M14.9978 116.248C14.2778 116.128 13.6578 115.868 13.1378 115.468C12.6578 115.068 12.3778 114.548 12.2978 113.908L12.9578 112.888C13.1978 112.888 13.5778 112.968 14.0978 113.128C14.6978 113.248 15.1578 113.308 15.4778 113.308C16.1978 113.308 16.8378 112.988 17.3978 112.348C17.9978 111.708 18.4378 110.868 18.7178 109.828C19.2378 107.908 19.4978 106.188 19.4978 104.668C19.4978 102.028 18.6578 99.248 16.9778 96.328L16.3178 95.188C15.5578 93.868 14.9178 92.688 14.3978 91.648C13.8778 90.608 13.4378 89.488 13.0778 88.288C12.5978 86.728 12.3578 85.168 12.3578 83.608C12.3578 81.848 12.7578 80.008 13.5578 78.088C13.9578 77.168 14.5178 76.428 15.2378 75.868C15.9978 75.268 16.8378 74.968 17.7578 74.968C18.4778 74.968 19.1378 75.208 19.7378 75.688C20.3778 76.128 20.6978 76.668 20.6978 77.308C20.6978 77.668 20.5578 77.948 20.2778 78.148C19.9978 78.348 19.6578 78.448 19.2578 78.448C18.8178 78.448 18.3978 78.328 17.9978 78.088C17.1178 78.128 16.4178 78.908 15.8978 80.428C15.4578 81.828 15.2378 82.988 15.2378 83.908C15.2378 85.068 15.4178 86.248 15.7778 87.448C16.1378 88.608 16.5978 89.668 17.1578 90.628L18.4778 93.028L20.5778 96.988C21.1378 98.108 21.5778 99.408 21.8978 100.888C22.2578 102.368 22.4378 103.868 22.4378 105.388C22.4378 107.828 21.8778 110.148 20.7578 112.348C20.1978 113.468 19.3978 114.368 18.3578 115.048C17.3578 115.728 16.2378 116.068 14.9978 116.068V116.248ZM35.762 116.548C34.722 116.548 33.762 116.208 32.882 115.528C32.002 114.888 31.282 114.008 30.722 112.888C29.562 110.448 28.842 107.788 28.562 104.908C28.202 102.188 28.022 99.568 28.022 97.048C28.022 96.568 28.042 96.168 28.082 95.848V94.768C28.082 94.568 28.062 94.468 28.022 94.468V93.388L28.082 89.188C28.122 87.908 28.282 85.868 28.562 83.068C28.762 81.148 29.222 79.288 29.942 77.488C30.222 76.688 30.582 76.088 31.022 75.688C31.462 75.248 31.962 75.028 32.522 75.028C34.122 75.028 35.562 75.328 36.842 75.928C38.122 76.488 39.202 77.288 40.082 78.328C40.882 79.328 41.562 80.568 42.122 82.048C42.682 83.488 43.082 85.028 43.322 86.668C43.562 88.348 43.682 90.128 43.682 92.008V92.488C43.682 93.728 43.702 94.848 43.742 95.848L43.802 99.268C43.802 110.788 41.122 116.548 35.762 116.548ZM35.522 114.028C36.242 114.028 36.902 113.748 37.502 113.188C38.102 112.588 38.562 111.788 38.882 110.788C39.642 108.748 40.102 106.548 40.262 104.188C40.462 102.148 40.562 100.388 40.562 98.908C40.562 97.108 40.422 94.748 40.142 91.828C39.902 88.748 39.782 86.448 39.782 84.928V83.848C39.702 82.328 39.182 81.008 38.222 79.888C37.302 78.768 36.162 78.208 34.802 78.208C33.442 78.208 32.542 78.988 32.102 80.548C31.702 81.788 31.502 83.388 31.502 85.348C31.502 86.108 31.522 86.748 31.562 87.268V88.888L31.442 91.648C31.362 92.488 31.322 93.408 31.322 94.408C31.322 96.568 31.382 98.708 31.502 100.828C31.662 103.828 32.062 106.748 32.702 109.588C33.342 112.548 34.282 114.028 35.522 114.028ZM51.4431 116.248C50.7231 116.128 50.1031 115.868 49.5831 115.468C49.1031 115.068 48.8231 114.548 48.7431 113.908L49.4031 112.888C49.6431 112.888 50.0231 112.968 50.5431 113.128C51.1431 113.248 51.6031 113.308 51.9231 113.308C52.6431 113.308 53.2831 112.988 53.8431 112.348C54.4431 111.708 54.8831 110.868 55.1631 109.828C55.6831 107.908 55.9431 106.188 55.9431 104.668C55.9431 102.028 55.1031 99.248 53.4231 96.328L52.7631 95.188C52.0031 93.868 51.3631 92.688 50.8431 91.648C50.3231 90.608 49.8831 89.488 49.5231 88.288C49.0431 86.728 48.8031 85.168 48.8031 83.608C48.8031 81.848 49.2031 80.008 50.0031 78.088C50.4031 77.168 50.9631 76.428 51.6831 75.868C52.4431 75.268 53.2831 74.968 54.2031 74.968C54.9231 74.968 55.5831 75.208 56.1831 75.688C56.8231 76.128 57.1431 76.668 57.1431 77.308C57.1431 77.668 57.0031 77.948 56.7231 78.148C56.4431 78.348 56.1031 78.448 55.7031 78.448C55.2631 78.448 54.8431 78.328 54.4431 78.088C53.5631 78.128 52.8631 78.908 52.3431 80.428C51.9031 81.828 51.6831 82.988 51.6831 83.908C51.6831 85.068 51.8631 86.248 52.2231 87.448C52.5831 88.608 53.0431 89.668 53.6031 90.628L54.9231 93.028L57.0231 96.988C57.5831 98.108 58.0231 99.408 58.3431 100.888C58.7031 102.368 58.8831 103.868 58.8831 105.388C58.8831 107.828 58.3231 110.148 57.2031 112.348C56.6431 113.468 55.8431 114.368 54.8031 115.048C53.8031 115.728 52.6831 116.068 51.4431 116.068V116.248ZM72.2073 116.548C71.1673 116.548 70.2073 116.208 69.3273 115.528C68.4473 114.888 67.7273 114.008 67.1673 112.888C66.0073 110.448 65.2873 107.788 65.0073 104.908C64.6473 102.188 64.4673 99.568 64.4673 97.048C64.4673 96.568 64.4873 96.168 64.5273 95.848V94.768C64.5273 94.568 64.5073 94.468 64.4673 94.468V93.388L64.5273 89.188C64.5673 87.908 64.7273 85.868 65.0073 83.068C65.2073 81.148 65.6673 79.288 66.3873 77.488C66.6673 76.688 67.0273 76.088 67.4673 75.688C67.9073 75.248 68.4073 75.028 68.9673 75.028C70.5673 75.028 72.0073 75.328 73.2873 75.928C74.5673 76.488 75.6473 77.288 76.5273 78.328C77.3273 79.328 78.0073 80.568 78.5673 82.048C79.1273 83.488 79.5273 85.028 79.7673 86.668C80.0073 88.348 80.1273 90.128 80.1273 92.008V92.488C80.1273 93.728 80.1473 94.848 80.1873 95.848L80.2473 99.268C80.2473 110.788 77.5673 116.548 72.2073 116.548ZM71.9673 114.028C72.6873 114.028 73.3473 113.748 73.9473 113.188C74.5473 112.588 75.0073 111.788 75.3273 110.788C76.0873 108.748 76.5473 106.548 76.7073 104.188C76.9073 102.148 77.0073 100.388 77.0073 98.908C77.0073 97.108 76.8673 94.748 76.5873 91.828C76.3473 88.748 76.2273 86.448 76.2273 84.928V83.848C76.1473 82.328 75.6273 81.008 74.6673 79.888C73.7473 78.768 72.6073 78.208 71.2473 78.208C69.8873 78.208 68.9873 78.988 68.5473 80.548C68.1473 81.788 67.9473 83.388 67.9473 85.348C67.9473 86.108 67.9673 86.748 68.0073 87.268V88.888L67.8873 91.648C67.8073 92.488 67.7673 93.408 67.7673 94.408C67.7673 96.568 67.8273 98.708 67.9473 100.828C68.1073 103.828 68.5073 106.748 69.1473 109.588C69.7873 112.548 70.7273 114.028 71.9673 114.028ZM121.945 118.528C120.705 118.528 120.085 117.288 120.085 114.808V110.968V107.128C120.085 105.128 119.945 102.508 119.665 99.268C119.345 95.628 119.185 93.128 119.185 91.768L119.305 88.048C119.385 86.968 119.425 85.748 119.425 84.388C119.265 84.908 118.605 87.668 117.445 92.668C116.285 97.508 115.085 101.988 113.845 106.108C112.645 110.068 111.665 112.048 110.905 112.048C110.145 112.048 109.525 111.828 109.045 111.388C108.605 110.908 108.385 110.268 108.385 109.468C108.385 107.708 107.665 103.968 106.225 98.248C104.825 92.528 103.545 87.848 102.385 84.208L102.025 90.988C101.705 96.708 101.485 101.468 101.365 105.268C101.285 108.948 101.245 111.468 101.245 112.828C101.245 113.148 101.265 113.448 101.305 113.728V114.568C101.305 115.248 101.165 115.748 100.885 116.068C100.605 116.428 100.085 116.608 99.3255 116.608C98.9255 116.608 98.5455 116.448 98.1855 116.128C97.8255 115.848 97.6455 115.528 97.6455 115.168C97.6455 111.088 97.9455 104.968 98.5455 96.808C99.1455 88.648 99.4455 82.528 99.4455 78.448C99.2055 78.088 99.0855 77.708 99.0855 77.308C99.0855 76.828 99.3055 76.468 99.7455 76.228C100.225 75.948 100.785 75.808 101.425 75.808C101.945 75.808 102.905 77.688 104.305 81.448C105.705 85.208 107.105 89.468 108.505 94.228C109.905 98.988 110.805 102.428 111.205 104.548C111.525 103.468 111.785 102.468 111.985 101.548L112.345 100.108C113.625 94.508 114.905 89.448 116.185 84.928C116.945 82.168 117.685 80.008 118.405 78.448C119.125 76.768 119.785 75.928 120.385 75.928C120.945 75.928 121.445 76.088 121.885 76.408C122.365 76.688 122.605 77.068 122.605 77.548C122.605 80.428 122.725 84.748 122.965 90.508C123.245 95.868 123.385 100.028 123.385 102.988L123.325 106.168L123.205 109.348C123.205 109.828 123.265 110.548 123.385 111.508L123.565 113.608C123.605 113.968 123.625 114.248 123.625 114.448C123.665 114.648 123.685 114.768 123.685 114.808C123.885 115.328 123.985 115.708 123.985 115.948C123.985 116.628 123.785 117.228 123.385 117.748C122.985 118.268 122.505 118.528 121.945 118.528ZM143.218 115.948C142.298 115.948 141.618 115.808 141.178 115.528C140.738 115.248 140.518 114.728 140.518 113.968C140.518 112.768 140.318 110.728 139.918 107.848L139.678 106.588L133.738 105.688C133.498 106.608 133.158 108.468 132.718 111.268C132.478 113.228 132.098 114.528 131.578 115.168C131.298 115.528 130.898 115.708 130.378 115.708C129.898 115.708 129.458 115.568 129.058 115.288C128.658 114.968 128.458 114.588 128.458 114.148L128.578 113.848L128.638 113.608C131.278 103.328 133.278 93.188 134.638 83.188C134.638 83.028 134.658 82.768 134.698 82.408C134.738 82.008 134.778 81.448 134.818 80.728C134.938 79.248 135.058 78.068 135.178 77.188C135.338 76.308 135.578 75.648 135.898 75.208H137.938C138.498 75.208 138.978 75.348 139.378 75.628C139.778 75.868 139.978 76.228 139.978 76.708C139.978 79.748 140.398 84.268 141.238 90.268C142.038 96.428 142.438 100.748 142.438 103.228C142.438 103.468 142.538 104.088 142.738 105.088C142.938 106.008 143.038 106.608 143.038 106.888C143.038 107.168 143.238 108.368 143.638 110.488C143.998 112.408 144.178 113.648 144.178 114.208V114.268C144.178 115.148 143.858 115.708 143.218 115.948ZM139.258 104.428C139.138 103.828 139.078 103.088 139.078 102.208C139.078 98.608 138.758 94.008 138.118 88.408L137.518 82.168C135.798 91.568 134.618 98.668 133.978 103.468C134.578 103.868 136.338 104.188 139.258 104.428ZM159.828 116.428C158.948 116.428 158.148 115.468 157.428 113.548C156.588 111.468 155.968 109.328 155.568 107.128L155.148 105.088C153.988 99.368 153.248 96.108 152.928 95.308H152.208C152.208 96.468 152.188 97.528 152.148 98.488V101.788C152.148 107.148 152.528 111.328 153.288 114.328L152.628 115.948H150.948L150.168 115.048L150.228 111.028C150.228 107.428 150.048 101.968 149.688 94.648C149.368 86.848 149.208 81.388 149.208 78.268C149.208 76.348 149.868 75.388 151.188 75.388C153.348 75.388 155.108 75.948 156.468 77.068C157.868 78.188 158.568 79.748 158.568 81.748V85.948C158.568 86.548 158.468 87.248 158.268 88.048C158.068 88.808 157.848 89.428 157.608 89.908L156.468 92.068L155.508 93.868L155.808 95.308L156.648 99.568C157.208 102.648 157.748 105.148 158.268 107.068C158.788 108.988 159.428 110.728 160.188 112.288L160.548 113.008C160.948 113.808 161.148 114.448 161.148 114.928C161.148 115.328 161.028 115.668 160.788 115.948C160.548 116.268 160.228 116.428 159.828 116.428ZM152.448 92.368C153.328 91.928 154.068 90.728 154.668 88.768C155.308 86.768 155.628 84.928 155.628 83.248C155.628 81.968 155.468 80.768 155.148 79.648C154.948 79.008 154.608 78.528 154.128 78.208C153.688 77.848 153.128 77.668 152.448 77.668L152.328 77.968L152.208 78.508L152.328 85.588C152.408 87.668 152.448 89.928 152.448 92.368ZM181.183 116.428C180.263 116.428 179.283 115.428 178.243 113.428C176.683 110.428 175.143 105.488 173.623 98.608C173.183 96.728 172.823 94.988 172.543 93.388C171.103 96.268 170.383 99.748 170.383 103.828V114.928C170.383 115.848 169.983 116.308 169.183 116.308C168.583 116.308 168.083 116.128 167.683 115.768C167.323 115.448 167.143 114.988 167.143 114.388V96.208C167.143 94.448 167.343 91.208 167.743 86.488C168.143 82.368 168.343 79.128 168.343 76.768C168.663 76.008 169.243 75.628 170.083 75.628C170.603 75.628 171.043 75.808 171.403 76.168C171.763 76.528 171.943 76.968 171.943 77.488V77.668C171.423 78.548 171.163 82.188 171.163 88.588V90.748L173.383 86.368C174.743 83.528 176.023 81.088 177.223 79.048C178.343 77.048 179.163 76.048 179.683 76.048C180.323 76.048 180.863 76.188 181.303 76.468C181.783 76.748 182.023 77.148 182.023 77.668L180.583 80.068C177.583 84.908 175.903 87.708 175.543 88.468C175.543 89.148 175.523 89.748 175.483 90.268L175.423 92.068C175.423 93.788 176.103 97.008 177.463 101.728C178.863 106.408 180.023 109.508 180.943 111.028L181.723 112.108C182.483 113.148 182.863 114.068 182.863 114.868C182.863 115.308 182.683 115.668 182.323 115.948C182.003 116.268 181.623 116.428 181.183 116.428ZM190.76 116.188C190.24 116.188 189.76 116.008 189.32 115.648C188.92 115.288 188.7 114.848 188.66 114.328V112.768V111.568C188.62 111.208 188.6 110.788 188.6 110.308C188.6 109.468 188.54 108.188 188.42 106.468L188.3 102.628C188.3 100.668 188.36 97.748 188.48 93.868C188.64 90.388 188.72 87.468 188.72 85.108C188.72 84.548 188.66 83.708 188.54 82.588C188.42 81.428 188.36 80.588 188.36 80.068C188.36 77.228 189.2 75.808 190.88 75.808C192.2 75.808 193.72 76.068 195.44 76.588C197.2 77.108 198.08 77.728 198.08 78.448C198.08 78.848 197.9 79.228 197.54 79.588C197.22 79.908 196.82 80.168 196.34 80.368C194.66 79.768 193.14 79.368 191.78 79.168C191.82 79.768 191.84 80.628 191.84 81.748C191.84 83.348 191.82 84.788 191.78 86.068C191.66 87.988 191.6 89.428 191.6 90.388L191.78 91.348L192.74 91.288C193.06 91.248 193.46 91.228 193.94 91.228C195.86 91.228 196.82 91.788 196.82 92.908C196.82 93.348 196.64 93.728 196.28 94.048C195.92 94.328 195.46 94.468 194.9 94.468C194.18 94.468 193.62 94.428 193.22 94.348H191.72C191.8 95.388 191.84 96.908 191.84 98.908C191.84 100.908 191.82 102.708 191.78 104.308C191.66 106.748 191.6 108.568 191.6 109.768C191.6 112.008 191.64 113.128 191.72 113.128L193.7 113.068C194.38 113.028 195.2 113.008 196.16 113.008C197.68 113.008 198.44 113.488 198.44 114.448C198.44 115.008 198.18 115.428 197.66 115.708C197.18 116.028 196.58 116.188 195.86 116.188H190.76ZM208.411 114.448L208.351 112.108C208.311 111.428 208.291 110.668 208.291 109.828L208.351 107.788C208.231 107.348 207.931 102.968 207.451 94.648C206.971 86.328 206.691 80.988 206.611 78.628C204.291 78.548 202.811 78.308 202.171 77.908C201.731 77.588 201.511 77.228 201.511 76.828C201.511 76.508 201.711 76.228 202.111 75.988C202.551 75.708 202.991 75.568 203.431 75.568C204.551 75.568 205.911 75.648 207.511 75.808C209.031 76.008 210.391 76.108 211.591 76.108H212.071H212.551C213.791 76.108 214.411 76.588 214.411 77.548C214.411 78.028 214.211 78.428 213.811 78.748C213.411 79.028 212.951 79.168 212.431 79.168C212.071 79.168 211.551 79.108 210.871 78.988L209.671 78.748L209.611 79.048L209.551 79.348C209.551 82.908 209.891 88.588 210.571 96.388C211.211 103.708 211.531 109.388 211.531 113.428C211.531 113.908 211.311 114.328 210.871 114.688C210.471 115.048 210.011 115.228 209.491 115.228L208.411 114.448Z" fill="#68CC58"/>
<ellipse cx="16.4696" cy="24.0289" rx="16.4696" ry="24.0289" transform="matrix(0.395618 -0.918415 0.928544 0.371223 71 38.0093)" fill="#FFA79F"/>
<ellipse cx="19.4338" cy="13.9825" rx="19.4338" ry="13.9825" transform="matrix(0.816346 0.577563 -0.606245 0.795278 117.479 24.9961)" fill="#FFA79F"/>
<ellipse cx="14.5443" cy="21.6898" rx="14.5443" ry="21.6898" transform="matrix(-0.553441 -0.832889 0.851155 -0.524915 95.1504 70.27)" fill="#FFA79F"/>
<ellipse cx="25.3338" cy="16.5393" rx="25.3338" ry="16.5393" transform="matrix(0.958748 -0.284257 0.304305 0.952575 96.3555 22.8979)" fill="#FFA79F"/>
<ellipse cx="113.052" cy="15.9458" rx="15.2098" ry="15.9458" fill="#FFA79F"/>
<ellipse cx="113.498" cy="33.6154" rx="11.1837" ry="10.3432" fill="#FFEFE8"/>
</svg>
